<svg width="155" height="70" viewBox="0 0 155 70" fill="none" xmlns="http://www.w3.org/2000/svg">
<line x1="90.5" y1="-2.18557e-08" x2="90.5" y2="70" stroke="#E4CFB7"/>
<path d="M106.781 23.9062V21.9844H117.434L117.387 23.9062H116.332C114.887 23.9062 114.008 24.0703 113.695 24.3984C113.562 24.5391 113.496 24.6953 113.496 24.8672C113.496 25.0312 113.527 25.2383 113.59 25.4883L121.898 48.3398L129.82 28.0781C129.766 27.9297 129.688 27.6992 129.586 27.3867C129.492 27.0742 129.406 26.8125 129.328 26.6016C129.25 26.3828 129.152 26.125 129.035 25.8281C128.918 25.5234 128.797 25.2734 128.672 25.0781C128.547 24.875 128.406 24.6797 128.25 24.4922C127.922 24.1016 127.531 23.9062 127.078 23.9062H124.723V21.9844H136.148V23.9062H133.605C133.09 23.9062 132.754 23.9531 132.598 24.0469C132.441 24.1328 132.363 24.3047 132.363 24.5625C132.363 24.9531 132.648 26.0117 133.219 27.7383L140.227 48.1875L148.781 25.7812C148.906 25.3281 148.969 25.0195 148.969 24.8555C148.969 24.6836 148.91 24.5234 148.793 24.375C148.676 24.2266 148.492 24.1172 148.242 24.0469C147.867 23.9531 147.324 23.9062 146.613 23.9062H145.371V21.9844H153.574L153.621 23.9062H153.047C152.297 23.9062 151.793 24.0625 151.535 24.375C151.277 24.6875 151.008 25.2227 150.727 25.9805C150.445 26.7305 150.293 27.1406 150.27 27.2109L139.652 54.7734H138.844L130.676 30.7734L121.371 54.7148H120.598L110.426 26.9297C109.941 25.5781 109.539 24.7656 109.219 24.4922C108.898 24.2109 108.633 24.043 108.422 23.9883C108.219 23.9336 107.941 23.9062 107.59 23.9062H106.781Z" fill="#E4CFB7"/>
<path fill-rule="evenodd" clip-rule="evenodd" d="M10.1931 0C11.1579 0 12.1227 0 13.0874 0C13.5663 0.0634847 14.0486 0.154158 14.5346 0.272021C14.9508 0.530787 15.3492 0.812882 15.73 1.11831C16.7744 2.061 17.7497 3.05841 18.6558 4.11054C18.9323 4.47724 19.184 4.86009 19.4108 5.25907C19.4937 5.43473 19.5148 5.61608 19.4737 5.80311C19.352 6.06059 19.2052 6.30236 19.0333 6.5285C16.5877 9.30117 13.9137 11.8501 11.0111 14.1753C10.546 14.5213 10.0637 14.8436 9.56392 15.1425C8.91 15.5691 8.37518 15.4583 7.95947 14.81C7.57478 14.2119 7.23917 13.5873 6.95276 12.9361C6.2988 11.2931 5.66961 9.64084 5.06518 7.97927C4.91386 7.2829 4.9558 6.59777 5.19102 5.92401C6.02168 4.1462 6.96547 2.43347 8.02239 0.785838C8.15924 0.611972 8.31654 0.46085 8.49429 0.33247C9.05805 0.168613 9.62432 0.0577897 10.1931 0Z" fill="#E3CFB6"/>
<path fill-rule="evenodd" clip-rule="evenodd" d="M61.9128 0C62.8985 0 63.884 0 64.87 0C65.4168 0.0644167 65.9623 0.17524 66.5059 0.33247C66.7054 0.443293 66.8627 0.594415 66.9778 0.785838C68.0348 2.43347 68.9786 4.1462 69.8092 5.92401C70.0426 6.59819 70.0848 7.28326 69.935 7.97927C69.3008 9.74626 68.6301 11.4993 67.9216 13.2383C67.629 13.8821 67.2723 14.4866 66.852 15.0518C66.6588 15.2355 66.4279 15.3564 66.1598 15.4145C65.9088 15.3475 65.6678 15.2569 65.4363 15.1425C64.9367 14.8436 64.4541 14.5212 63.9891 14.1753C61.0865 11.8501 58.4124 9.30117 55.9669 6.5285C55.795 6.30236 55.6481 6.06058 55.5265 5.80311C55.4854 5.61608 55.5064 5.43473 55.5894 5.25907C56.1006 4.40502 56.7088 3.61919 57.414 2.90155C58.0327 2.30714 58.6515 1.71272 59.2702 1.11831C59.6509 0.812882 60.0494 0.530787 60.4656 0.272021C60.9516 0.154158 61.4339 0.0634847 61.9128 0Z" fill="#E3CFB6"/>
<path fill-rule="evenodd" clip-rule="evenodd" d="M36.7451 6.40747C40.6471 6.53145 44.5481 6.68257 48.4481 6.86084C48.7147 7.00833 48.7566 7.19978 48.574 7.4351C45.4355 9.90965 42.1846 12.2369 38.8214 14.417C38.4115 14.6744 37.9711 14.8658 37.5001 14.9912C37.0292 14.8658 36.5887 14.6744 36.1788 14.417C32.8157 12.2369 29.5648 9.90965 26.4263 7.4351C26.2437 7.19978 26.2856 7.00833 26.5522 6.86084C29.9605 6.72416 33.3582 6.57304 36.7451 6.40747Z" fill="#E3CFB6"/>
<path fill-rule="evenodd" clip-rule="evenodd" d="M21.2669 6.8911C21.6175 6.86028 21.9531 6.91063 22.2736 7.04223C26.9991 10.0021 31.6866 13.0145 36.3361 16.0794C36.401 16.3377 36.4429 16.5996 36.462 16.8652C36.5551 21.883 36.5132 26.9003 36.3361 31.917C36.2477 32.2237 36.0485 32.4352 35.7384 32.5517C34.1552 33.3827 32.5822 34.229 31.0195 35.0906C30.685 35.3146 30.3285 35.3549 29.9498 35.2115C28.6914 34.204 27.433 33.1965 26.1747 32.189C25.0074 31.3845 23.749 31.2234 22.3995 31.7054C21.8432 31.9826 21.3188 32.305 20.8265 32.6726C20.5741 32.9087 20.5217 33.1807 20.6692 33.4887C21.6491 34.3901 22.6663 35.2464 23.7208 36.0578C25.105 36.0779 26.4893 36.0981 27.8735 36.1182C28.0892 36.2459 28.1102 36.397 27.9364 36.5716C27.2576 36.8674 26.5864 37.1798 25.923 37.5085C25.8255 37.5819 25.7521 37.6726 25.7028 37.7806C25.8195 41.779 25.8928 45.7787 25.923 49.7797C25.9624 52.6151 25.868 55.4462 25.6398 58.2728C25.5817 58.8606 25.4978 59.4449 25.3882 60.0258C25.3195 60.4864 25.1411 60.8999 24.8533 61.265C24.4171 61.3134 24.0186 61.213 23.6579 60.9628C23.1643 60.6351 22.6819 60.2925 22.2107 59.9351C18.7078 56.9335 15.6143 53.5987 12.9301 49.9308C12.6824 49.5153 12.4517 49.0922 12.238 48.6614C11.9847 47.7674 11.796 46.8607 11.6717 45.9412C10.7126 38.3437 9.95754 30.7271 9.40662 23.0914C9.24435 21.1756 9.74771 19.4427 10.9167 17.8928C14.149 14.4047 17.3579 10.8987 20.5434 7.3747C20.7624 7.17286 21.0036 7.01164 21.2669 6.8911Z" fill="#E3CFB6"/>
<path fill-rule="evenodd" clip-rule="evenodd" d="M53.0411 6.8912C53.6075 6.80724 54.0794 6.96839 54.4568 7.37479C57.7286 10.9614 61.0004 14.5481 64.2722 18.1347C65.333 19.6533 65.7735 21.3258 65.5935 23.152C65.0386 30.7672 64.2835 38.3636 63.3284 45.9413C63.2038 46.8608 63.0151 47.7675 62.7621 48.6615C62.1388 49.8393 61.4048 50.9476 60.5599 51.9862C58.2358 54.8642 55.6456 57.5139 52.7894 59.9352C52.1737 60.4057 51.5235 60.8287 50.8389 61.2047C50.5262 61.3546 50.2431 61.3244 49.9895 61.114C49.6272 60.2004 49.4175 59.2533 49.3603 58.2729C49.1355 55.4562 49.0411 52.6353 49.0771 49.81C49.1104 45.799 49.1839 41.7892 49.2974 37.7807C49.248 37.6727 49.1746 37.582 49.0771 37.5086C48.4766 37.2101 47.8684 36.928 47.2525 36.6624C47.0726 36.435 47.1146 36.2537 47.3783 36.1183C48.6787 36.0982 49.979 36.078 51.2793 36.0579C52.3338 35.2465 53.351 34.3902 54.3309 33.4888C54.4895 33.1437 54.416 32.8515 54.1107 32.6123C53.6811 32.3152 53.2407 32.0331 52.7894 31.766C51.5063 31.2023 50.2689 31.2829 49.0771 32.0078C47.7165 33.0529 46.3743 34.1208 45.0503 35.2116C44.724 35.3461 44.4094 35.326 44.1065 35.1511C42.3292 34.1815 40.5569 33.2042 38.7898 32.2194C38.7356 32.1234 38.6936 32.0226 38.664 31.9171C38.4902 26.9205 38.4483 21.9234 38.5381 16.9257C38.5553 16.6399 38.5972 16.3578 38.664 16.0795C43.4031 12.9321 48.1955 9.86928 53.0411 6.8912Z" fill="#E3CFB6"/>
<path fill-rule="evenodd" clip-rule="evenodd" d="M0 39.9569C0 39.7352 0 39.5136 0 39.292C1.97431 34.903 3.95627 30.5103 5.94589 26.1141C6.55797 25.6112 7.12424 25.6515 7.64471 26.235C7.71342 26.3888 7.75539 26.55 7.77055 26.7186C8.18419 32.4734 8.61411 38.2261 9.0604 43.9768C8.86158 44.8079 8.3372 45.09 7.48741 44.8231C5.08619 43.3169 2.67428 41.8258 0.251678 40.3498C0.149451 40.2232 0.065558 40.0923 0 39.9569Z" fill="#E3CFB6"/>
<path fill-rule="evenodd" clip-rule="evenodd" d="M75 39.2919C75 39.5337 75 39.7755 75 40.0173C74.9075 40.1171 74.8238 40.2279 74.7483 40.3497C72.3259 41.8257 69.9136 43.3168 67.5126 44.823C66.4858 45.0952 65.9824 44.7224 66.0025 43.7046C66.4027 38.0622 66.8117 32.4203 67.2295 26.7789C67.3874 25.8715 67.9222 25.5793 68.8339 25.9024C68.9283 25.9931 69.0227 26.0838 69.117 26.1744C71.0613 30.5605 73.0225 34.9329 75 39.2919Z" fill="#E3CFB6"/>
<path fill-rule="evenodd" clip-rule="evenodd" d="M37.2483 34.335C37.4382 34.325 37.627 34.3351 37.8146 34.3652C41.0026 35.7153 44.1904 37.0653 47.3784 38.4153C47.5382 38.5486 47.6745 38.6997 47.7873 38.8687C47.8917 45.9386 47.9127 53.0112 47.8503 60.0863C47.7662 60.4491 47.546 60.7011 47.1896 60.8419C44.361 61.0233 41.5296 61.1442 38.6955 61.2046C38.0519 60.8861 37.8946 60.4128 38.2236 59.7841C39.9853 57.6482 41.7471 55.5123 43.5088 53.3765C43.9165 52.9394 43.8641 52.5667 43.3515 52.2582C41.405 51.866 39.4545 51.4932 37.5 51.1399C35.5455 51.4932 33.595 51.866 31.6485 52.2582C31.1542 52.5744 31.1017 52.9472 31.4912 53.3765C33.3159 55.593 35.1405 57.8094 36.9652 60.0259C37.1745 60.903 36.8075 61.3062 35.8641 61.2348C33.2844 61.1242 30.7047 61.013 28.125 60.9024C27.6804 60.8752 27.3763 60.6636 27.2127 60.2677C27.1396 56.7147 27.1082 53.1582 27.1183 49.5984C27.1083 46.0192 27.1398 42.4426 27.2127 38.8687C27.349 38.6571 27.5273 38.4859 27.7475 38.3549C30.9234 37.0194 34.0903 35.6794 37.2483 34.335Z" fill="#E3CFB6"/>
<path fill-rule="evenodd" clip-rule="evenodd" d="M28.6914 69.9999C23.469 69.9999 18.2467 69.9999 13.0244 69.9999C12.7719 69.8198 12.5936 69.578 12.4896 69.2745C8.55229 61.1351 4.64079 52.9843 0.755127 44.8229C0.88593 44.1659 1.28442 43.9241 1.9506 44.0975C4.34154 45.4878 6.73247 46.8782 9.12341 48.2685C15.6543 55.2482 22.2084 62.2099 28.7857 69.1536C29.0156 69.4704 28.9841 69.7527 28.6914 69.9999Z" fill="#E3CFB6"/>
<path fill-rule="evenodd" clip-rule="evenodd" d="M61.9756 69.9999C56.7533 69.9999 51.531 69.9999 46.3087 69.9999C45.9871 69.7164 45.9765 69.4141 46.2772 69.0931C52.8336 62.1699 59.3667 55.2281 65.8766 48.2684C68.2676 46.8781 70.6585 45.4878 73.0495 44.0975C73.6975 43.9254 74.0958 44.1571 74.2449 44.7926C70.2741 53.1481 66.268 61.4899 62.2273 69.8185C62.1392 69.8802 62.0552 69.9406 61.9756 69.9999Z" fill="#E3CFB6"/>
<path fill-rule="evenodd" clip-rule="evenodd" d="M37.2485 52.0467C37.4592 52.0367 37.669 52.0468 37.8777 52.0769C39.2392 52.3667 40.6024 52.6488 41.9674 52.9232C42.2597 53.0456 42.3541 53.2572 42.2506 53.5579C41.5794 54.3639 40.9083 55.1699 40.2371 55.9759C39.8494 56.3082 39.3984 56.5198 38.8844 56.6106C37.895 56.7423 36.9093 56.7222 35.9272 56.5501C35.3938 56.4007 34.9639 56.1086 34.6373 55.6736C34.074 54.951 33.4867 54.2457 32.8756 53.5579C32.7721 53.2572 32.8664 53.0456 33.1587 52.9232C34.5363 52.6567 35.8996 52.3645 37.2485 52.0467Z" fill="#E3CFB6"/>
<path fill-rule="evenodd" clip-rule="evenodd" d="M42.6593 70.0001C39.2197 70.0001 35.7801 70.0001 32.3405 70.0001C32.126 69.9106 31.9477 69.7698 31.8057 69.5769C30.5 67.6522 29.1787 65.7378 27.8418 63.8343C27.6402 63.4365 27.7555 63.1947 28.1878 63.1089C31.2952 64.1039 34.3993 65.1116 37.4999 66.1313C40.5257 65.1521 43.5458 64.1547 46.5603 63.1391C47.1661 63.043 47.3654 63.2745 47.158 63.8343C45.7701 65.7928 44.4068 67.7671 43.0683 69.7583C42.9365 69.8562 42.8002 69.9372 42.6593 70.0001Z" fill="#E3CFB6"/>
</svg>
