<svg width="75" height="42" viewBox="0 0 75 42" fill="none" xmlns="http://www.w3.org/2000/svg">
<path d="M10.625 41.25C7.81252 41.25 5.42076 40.2645 3.44976 38.2935C1.47876 36.3225 0.495515 33.933 0.500015 31.125V24.375H10.625V31.125H20.75V0.750023H30.875V31.125C30.875 33.9375 29.8895 36.3293 27.9185 38.3003C25.9475 40.2713 23.558 41.2545 20.75 41.25H10.625ZM47.75 41.25C45.8375 41.25 44.2333 40.602 42.9373 39.306C41.6413 38.01 40.9955 36.408 41 34.5V27.75H51.125V31.125H64.625V24.375H47.75C45.8375 24.375 44.2333 23.727 42.9373 22.431C41.6413 21.135 40.9955 19.533 41 17.625V7.50002C41 5.58752 41.648 3.98327 42.944 2.68727C44.24 1.39127 45.842 0.745523 47.75 0.750023H68C69.9125 0.750023 71.5168 1.39802 72.8128 2.69402C74.1088 3.99002 74.7545 5.59202 74.75 7.50002V14.25H64.625V10.875H51.125V17.625H68C69.9125 17.625 71.5168 18.273 72.8128 19.569C74.1088 20.865 74.7545 22.467 74.75 24.375V34.5C74.75 36.4125 74.102 38.0168 72.806 39.3128C71.51 40.6088 69.908 41.2545 68 41.25H47.75Z" fill="#E3CFB6"/>
</svg>
