<svg width="33" height="18" viewBox="0 0 33 18" fill="none" xmlns="http://www.w3.org/2000/svg">
<path d="M17.4729 17.5412L31.7435 2.5638C31.9817 2.3139 32.1146 1.98188 32.1146 1.63661C32.1146 1.29135 31.9817 0.959333 31.7435 0.709427L31.7274 0.6933C31.6119 0.571732 31.4729 0.47493 31.3188 0.408779C31.1647 0.34263 30.9988 0.308517 30.8311 0.308517C30.6634 0.308517 30.4975 0.34263 30.3434 0.408779C30.1893 0.47493 30.0503 0.571731 29.9348 0.6933L16.4973 14.7973L3.06518 0.693298C2.94969 0.571729 2.81068 0.474927 2.65659 0.408777C2.50251 0.342628 2.33658 0.308515 2.1689 0.308515C2.00122 0.308515 1.83529 0.342628 1.68121 0.408776C1.52713 0.474927 1.38811 0.571729 1.27262 0.693298L1.25649 0.709424C1.01826 0.959331 0.88536 1.29134 0.88536 1.63661C0.88536 1.98187 1.01826 2.31389 1.25649 2.5638L15.5271 17.5412C15.6526 17.673 15.8036 17.7778 15.9708 17.8495C16.138 17.9211 16.3181 17.9581 16.5 17.9581C16.6819 17.9581 16.862 17.9211 17.0292 17.8495C17.1964 17.7778 17.3474 17.673 17.4729 17.5412Z" fill="#1B3048"/>
</svg>
