<svg width="124" height="18" viewBox="0 0 124 18" fill="none" xmlns="http://www.w3.org/2000/svg">
<path d="M0.890625 1.95312V0.992188H6.2168L6.19336 1.95312H5.66602C4.94336 1.95312 4.50391 2.03516 4.34766 2.19922C4.28125 2.26953 4.24805 2.34766 4.24805 2.43359C4.24805 2.51562 4.26367 2.61914 4.29492 2.74414L8.44922 14.1699L12.4102 4.03906C12.3828 3.96484 12.3438 3.84961 12.293 3.69336C12.2461 3.53711 12.2031 3.40625 12.1641 3.30078C12.125 3.19141 12.0762 3.0625 12.0176 2.91406C11.959 2.76172 11.8984 2.63672 11.8359 2.53906C11.7734 2.4375 11.7031 2.33984 11.625 2.24609C11.4609 2.05078 11.2656 1.95312 11.0391 1.95312H9.86133V0.992188H15.5742V1.95312H14.3027C14.0449 1.95312 13.877 1.97656 13.7988 2.02344C13.7207 2.06641 13.6816 2.15234 13.6816 2.28125C13.6816 2.47656 13.8242 3.00586 14.1094 3.86914L17.6133 14.0938L21.8906 2.89062C21.9531 2.66406 21.9844 2.50977 21.9844 2.42773C21.9844 2.3418 21.9551 2.26172 21.8965 2.1875C21.8379 2.11328 21.7461 2.05859 21.6211 2.02344C21.4336 1.97656 21.1621 1.95312 20.8066 1.95312H20.1855V0.992188H24.2871L24.3105 1.95312H24.0234C23.6484 1.95312 23.3965 2.03125 23.2676 2.1875C23.1387 2.34375 23.0039 2.61133 22.8633 2.99023C22.7227 3.36523 22.6465 3.57031 22.6348 3.60547L17.3262 17.3867H16.9219L12.8379 5.38672L8.18555 17.3574H7.79883L2.71289 3.46484C2.4707 2.78906 2.26953 2.38281 2.10938 2.24609C1.94922 2.10547 1.81641 2.02148 1.71094 1.99414C1.60938 1.9668 1.4707 1.95312 1.29492 1.95312H0.890625ZM30.6973 15.8984C33.8965 15.8672 35.8008 15.8262 36.4102 15.7754C37.0234 15.7246 37.373 15.6562 37.459 15.5703C37.5449 15.4844 37.6094 15.3789 37.6523 15.2539C37.6992 15.125 37.8281 14.4277 38.0391 13.1621L38.8594 13.2793L38.2559 17H26.0918V16.0625H26.7129C27.3105 16.0625 27.6523 16.0332 27.7383 15.9746C27.8281 15.9121 27.8906 15.8398 27.9258 15.7578C27.9648 15.6562 27.9844 15.4551 27.9844 15.1543V2.98438C27.9844 2.50781 27.8984 2.21094 27.7266 2.09375C27.5781 2 27.1035 1.95312 26.3027 1.95312H25.6348L25.6113 0.992188H37.9688C37.9922 2.37109 38.0332 3.62695 38.0918 4.75977L37.1543 4.80664C37.0957 3.22852 36.9766 2.34375 36.7969 2.15234C36.7422 2.09375 36.6504 2.05859 36.5215 2.04688C36.3965 2.03125 36.0234 2.02344 35.4023 2.02344H31.3184C30.6582 2.02344 30.2832 2.05859 30.1934 2.12891C30.1035 2.19922 30.0391 2.28516 30 2.38672C29.9531 2.50391 29.9297 2.75977 29.9297 3.1543V6.48828C29.9297 6.95703 29.9531 7.21875 30 7.27344C30.0508 7.32422 30.1094 7.36328 30.1758 7.39062C30.2617 7.42969 30.4434 7.44922 30.7207 7.44922H34.3477C34.7695 7.44922 35.0117 7.4082 35.0742 7.32617C35.1367 7.24023 35.1797 7.14648 35.2031 7.04492C35.2383 6.91211 35.2559 6.64648 35.2559 6.24805V5.33398L36.1465 5.35742V11.0938H35.2559V9.8457C35.2559 9.17773 35.2227 8.80273 35.1562 8.7207C35.0898 8.63867 35.043 8.58984 35.0156 8.57422C34.9922 8.55469 34.9395 8.53906 34.8574 8.52734C34.7793 8.51172 34.7148 8.50391 34.6641 8.50391H30.791C30.3926 8.50391 30.1543 8.54297 30.0762 8.62109C29.9785 8.72656 29.9297 8.93555 29.9297 9.24805V14.9141C29.9297 15.3281 29.9785 15.5957 30.0762 15.7168C30.1738 15.8379 30.3809 15.8984 30.6973 15.8984ZM40.4004 1.95312L40.4473 0.992188H45.75C48.5117 0.992188 50.2754 1.7793 51.041 3.35352C51.2754 3.83789 51.3926 4.32422 51.3926 4.8125C51.3926 5.30078 51.3027 5.73438 51.123 6.11328C50.9434 6.48828 50.7051 6.81641 50.4082 7.09766C49.8105 7.67188 49.1133 8.07617 48.3164 8.31055C49.7891 8.64258 50.8359 9.42188 51.457 10.6484C51.7969 11.332 51.9668 12.0059 51.9668 12.6699C51.9668 13.9629 51.6074 14.9336 50.8887 15.582C49.9316 16.4453 48.1738 16.9121 45.6152 16.9824C45.1816 16.9941 44.6426 17 43.998 17H40.5879V16.0625H41.3086C41.7188 16.0625 41.9883 16.0215 42.1172 15.9395C42.25 15.8574 42.3164 15.666 42.3164 15.3652V2.81445C42.3164 2.36133 42.168 2.09766 41.8711 2.02344C41.6953 1.97656 41.4277 1.95312 41.0684 1.95312H40.4004ZM44.2148 8.74414L44.2617 15.1777C44.2617 15.5059 44.3633 15.7168 44.5664 15.8105C44.7695 15.9004 45.1465 15.9453 45.6973 15.9453C46.248 15.9453 46.7148 15.9082 47.0977 15.834C47.4844 15.7559 47.8086 15.6562 48.0703 15.5352C48.332 15.4102 48.5625 15.2578 48.7617 15.0781C48.9609 14.8945 49.1172 14.7109 49.2305 14.5273C49.3477 14.3398 49.4414 14.1348 49.5117 13.9121C49.6289 13.541 49.6875 13.1309 49.6875 12.6816C49.6875 12.2324 49.6211 11.8164 49.4883 11.4336C49.3555 11.0469 49.1797 10.7207 48.9609 10.4551C48.7422 10.1855 48.4785 9.94727 48.1699 9.74023C47.8652 9.5332 47.5508 9.36914 47.2266 9.24805C46.9062 9.12305 46.5605 9.02148 46.1895 8.94336C45.5605 8.81055 44.9023 8.74414 44.2148 8.74414ZM45 2.04688C44.5078 2.04688 44.2617 2.23047 44.2617 2.59766V8.04688H46.6113C47.4004 8.04688 48.0312 7.72461 48.5039 7.08008C48.9414 6.48633 49.1602 5.86523 49.1602 5.2168C49.1602 4.10352 48.5957 3.22656 47.4668 2.58594C46.8301 2.22656 46.0078 2.04688 45 2.04688ZM64.9629 2.89062C65.3652 2.5625 65.5664 2.32422 65.5664 2.17578C65.5664 2.02734 65.1973 1.95312 64.459 1.95312H63.5273L63.4746 0.992188H69.2344V1.95312H68.6133C68.1523 1.95312 67.8066 2.01172 67.5762 2.12891C67.2715 2.28906 66.6484 2.75 65.707 3.51172L60.2871 7.85352L67.5352 15.418C67.7891 15.6836 67.9844 15.8574 68.1211 15.9395C68.2578 16.0215 68.4062 16.0625 68.5664 16.0625H69.9551L69.9082 17H66.1406L58.8457 8.98438L57.9551 9.70508V14.9609C57.9551 15.3555 57.9844 15.6016 58.043 15.6992C58.1016 15.793 58.1699 15.8613 58.248 15.9043C58.3301 15.9473 58.4062 15.9766 58.4766 15.9922C58.5508 16.0078 58.6641 16.0234 58.8164 16.0391C59.0156 16.0547 59.3613 16.0625 59.8535 16.0625H60.3809V17H54.2344L54.2109 16.0625H54.8613C55.4355 16.0625 55.7578 16.0215 55.8281 15.9395C55.8984 15.8574 55.9414 15.8008 55.957 15.7695C55.9727 15.7344 55.9863 15.6699 55.998 15.5762C56.0098 15.4785 56.0156 15.3984 56.0156 15.3359V2.81445C56.0156 2.39648 55.9766 2.16211 55.8984 2.11133C55.8242 2.06055 55.7344 2.02344 55.6289 2C55.5039 1.96875 55.2246 1.95312 54.791 1.95312H53.7832V0.992188H59.7832V1.95312H59.0156C58.5391 1.95312 58.2676 1.98828 58.2012 2.05859C58.1387 2.12891 58.0879 2.20703 58.0488 2.29297C57.9863 2.42578 57.9551 2.67969 57.9551 3.05469V8.57422L64.9629 2.89062ZM70.752 1.95312V0.992188H76.5117L76.5352 1.95312H75.6211C75.1445 1.95312 74.8086 2.00781 74.6133 2.11719C74.4219 2.22656 74.3262 2.4668 74.3262 2.83789V11.7207C74.3262 12.834 74.6758 13.7891 75.375 14.5859C76.2266 15.5547 77.5488 16.0391 79.3418 16.0391C81.3496 16.0391 82.6953 15.6133 83.3789 14.7617C83.625 14.4609 83.8105 14.1836 83.9355 13.9297C84.0605 13.6719 84.1562 13.3242 84.2227 12.8867C84.3125 12.293 84.3574 11.5273 84.3574 10.5898V2.81445C84.3574 2.43945 84.2676 2.19336 84.0879 2.07617C83.959 1.99414 83.6094 1.95312 83.0391 1.95312H82.1953L82.248 0.992188H86.7598V1.95312H86.4199C86.1504 1.95312 85.957 1.97461 85.8398 2.01758C85.6055 2.09961 85.4883 2.42969 85.4883 3.00781V11.5273C85.4883 14.1836 84.5664 15.9434 82.7227 16.8066C81.8281 17.2246 80.7012 17.4336 79.3418 17.4336C75.8848 17.4336 73.7109 16.3633 72.8203 14.2227C72.5273 13.5156 72.3809 12.7207 72.3809 11.8379V2.81445C72.3809 2.41602 72.3242 2.17969 72.2109 2.10547C72.0664 2.00391 71.7949 1.95312 71.3965 1.95312H70.752ZM90.1816 3.22461L90.2051 2.59766C90.2051 2.33203 90.1621 2.1582 90.0762 2.07617C89.9902 1.99414 89.8105 1.95312 89.5371 1.95312H88.3125L88.2891 0.992188H91.9102L97.3828 13.8066L102.756 0.992188H106.6V1.95312H105.785C105.301 1.95312 104.971 2 104.795 2.09375C104.623 2.18359 104.537 2.39258 104.537 2.7207V14.9609C104.537 15.3867 104.555 15.6348 104.59 15.7051C104.629 15.7754 104.674 15.8359 104.725 15.8867C104.779 15.9375 104.836 15.9707 104.895 15.9863C104.957 15.998 105.047 16.0117 105.164 16.0273C105.305 16.0508 105.582 16.0625 105.996 16.0625H106.477L106.5 17H100.67L100.646 16.0625H101.127C101.811 16.0625 102.203 16.0273 102.305 15.957C102.41 15.8828 102.48 15.7988 102.516 15.7051C102.566 15.5801 102.592 15.3477 102.592 15.0078V3.99219L98.8945 12.7051C98.3672 13.9551 97.9512 14.9746 97.6465 15.7637C97.3418 16.5527 97.168 16.9844 97.125 17.0586C97.082 17.1328 97.0176 17.1699 96.9316 17.1699C96.7949 17.1699 96.4805 16.6016 95.9883 15.4648L91.166 4.30273L91.0723 15.248C91.0723 15.5293 91.1191 15.7246 91.2129 15.834C91.3066 15.9434 91.5234 16.0098 91.8633 16.0332C92.2031 16.0527 92.7383 16.0625 93.4688 16.0625V17H88.2891V16.0625H88.5293C89.2012 16.0625 89.584 16.0273 89.6777 15.957C89.7754 15.8828 89.8438 15.7949 89.8828 15.6934C89.9297 15.5684 89.957 15.3164 89.9648 14.9375L90.1816 3.22461ZM107.783 16.0625H108.07C108.5 16.0625 108.787 15.9883 108.932 15.8398C109.076 15.6914 109.242 15.4062 109.43 14.9844C109.621 14.5586 109.865 14.0137 110.162 13.3496C110.463 12.6816 110.842 11.8398 111.299 10.8242C111.756 9.80469 112.086 9.07031 112.289 8.62109C112.492 8.17188 112.668 7.78711 112.816 7.4668C112.965 7.14258 113.066 6.91602 113.121 6.78711C113.176 6.6582 113.236 6.51758 113.303 6.36523L115.746 0.417969H116.25C117.219 2.94531 118.443 6.00195 119.924 9.58789C121.404 13.1699 122.223 15.1074 122.379 15.4004C122.535 15.6934 122.695 15.877 122.859 15.9512C123.027 16.0254 123.258 16.0625 123.551 16.0625H123.908L123.885 17H118.412L118.436 16.0625H119.156C119.555 16.0625 119.83 16.0469 119.982 16.0156C120.135 15.9805 120.211 15.9004 120.211 15.7754C120.211 15.6855 120.174 15.5508 120.1 15.3711C120.029 15.1875 119.986 15.0742 119.971 15.0312L118.195 10.666H112.629L110.73 14.8906C110.57 15.2812 110.49 15.5527 110.49 15.7051C110.49 15.8574 110.551 15.9551 110.672 15.998C110.797 16.041 111.064 16.0625 111.475 16.0625H112.459V17H107.807L107.783 16.0625ZM113.086 9.60547H117.791L115.512 3.92188L113.086 9.60547Z" fill="#E4CFB7"/>
</svg>
