<svg width="341" height="178" viewBox="0 0 341 178" fill="none" xmlns="http://www.w3.org/2000/svg">
<g clip-path="url(#clip0_357_257)">
<path fill-rule="evenodd" clip-rule="evenodd" d="M112.923 -0.0891113C114.292 -0.0891113 115.66 -0.0891113 117.029 -0.0891113C124.913 0.931474 132.828 1.91146 140.774 2.85083C174.042 4.0175 207.308 5.20536 240.575 6.41439C243.412 6.85063 245.97 7.91969 248.252 9.6216C265.757 22.7565 283.312 35.8231 300.919 48.8208C302.24 49.9476 303.283 51.2839 304.043 52.8298C307.698 62.2873 311.388 71.7308 315.113 81.1601C316.618 93.4719 318.224 105.766 319.933 118.043C326.389 128.793 332.936 139.484 339.572 150.115C341.043 152.699 341.102 155.312 339.75 157.955C336.289 162.657 332.896 167.408 329.574 172.209C328.883 172.958 328.14 173.641 327.342 174.258C324.884 175.485 322.384 176.614 319.844 177.644C314.309 177.762 308.775 177.762 303.24 177.644C301.749 176.954 301.183 175.795 301.544 174.169C302.01 172.576 303.051 171.596 304.668 171.229C306.811 170.873 308.953 170.516 311.096 170.16C311.804 169.988 312.37 169.602 312.792 169.002C314.041 166.864 315.291 164.726 316.541 162.588C316.703 161.883 316.584 161.23 316.184 160.628C313.261 157.414 310.405 154.147 307.614 150.828C297.532 141.063 287.504 131.233 277.531 121.339C276.824 120.914 276.26 121.063 275.835 121.785C264.529 137.94 253.22 154.094 241.914 170.249C240.564 172.452 238.63 173.848 236.111 174.436C229.032 175.522 221.95 176.591 214.866 177.644C208.249 177.818 201.644 177.759 195.048 177.465C192.761 176.198 191.84 174.268 192.281 171.675C192.649 169.703 193.751 168.307 195.584 167.487C200.783 165.339 205.96 163.142 211.117 160.895C211.929 160.381 212.554 159.698 212.991 158.846C214.355 152.576 215.605 146.28 216.74 139.959C216.86 133.485 216.86 127.011 216.74 120.538C216.374 118.805 215.332 117.706 213.616 117.241C197.837 113.171 182.067 109.073 166.304 104.947C164.998 104.428 163.897 103.626 163.002 102.542C161.752 100.522 160.502 98.5028 159.252 96.4835C158.916 95.9238 158.499 95.4486 158.003 95.058C157.665 95.1074 157.427 95.2856 157.289 95.5926C155.965 101.958 154.597 108.313 153.182 114.658C152.536 116.134 151.614 117.41 150.415 118.488C141.726 124.784 133.038 131.08 124.349 137.375C121.864 138.42 119.364 139.43 116.851 140.404C111.746 142.083 106.687 143.864 101.675 145.75C101.407 146.017 101.14 146.284 100.872 146.552C97.9418 152.341 94.9662 158.102 91.9451 163.835C89.2995 166.633 86.2941 167.078 82.9291 165.171C81.6419 164.174 80.779 162.898 80.3403 161.34C80.1427 158.198 80.0534 155.05 80.0725 151.897C80.1024 149.224 80.132 146.552 80.1618 143.879C80.2757 141.578 80.9302 139.44 82.1257 137.464C83.3754 135.623 84.6252 133.782 85.8749 131.941C91.7071 125.17 97.5391 118.399 103.371 111.629C103.927 110.676 104.344 109.667 104.621 108.6C105.057 106.049 105.473 103.495 105.871 100.938C106.018 100.031 105.959 99.1403 105.692 98.2652C101.929 91.1691 98.1202 84.1013 94.266 77.062C93.6927 76.197 92.8893 75.7218 91.8558 75.6366C81.9893 77.7427 72.1103 79.7917 62.2191 81.7838C55.8255 83.1046 49.3983 84.233 42.9375 85.1691C31.2696 85.8672 19.6052 86.6097 7.9448 87.3964C7.51425 87.4131 7.18692 87.2349 6.96286 86.8618C4.92377 83.9203 2.84088 81.0099 0.71417 78.1311C0.388815 77.4795 0.121013 76.8261 -0.0892334 76.1712C-0.0892334 75.6366 -0.0892334 75.1021 -0.0892334 74.5675C0.156775 73.3964 0.751889 72.4164 1.69611 71.6276C7.5564 67.4263 13.448 63.2689 19.371 59.1551C20.5373 58.1226 20.9242 56.8458 20.5314 55.3243C19.3751 52.7578 19.256 50.1445 20.1744 47.4845C24.9084 39.7913 29.6395 32.0998 34.3678 24.4104C33.2074 21.1734 32.0469 17.9366 30.8864 14.6997C30.6895 11.6891 32.0881 10.4121 35.082 10.8688C37.2351 11.4861 39.3775 12.1395 41.5092 12.8288C47.178 15.7764 52.8911 18.6273 58.6485 21.3814C59.5411 21.5002 60.4338 21.5002 61.3265 21.3814C66.1014 19.5752 70.8623 17.734 75.6092 15.8578C85.407 11.1766 95.2263 6.54393 105.067 1.95994C107.61 0.901274 110.229 0.218259 112.923 -0.0891113ZM35.082 14.8779C36.9668 15.3037 38.8115 15.8679 40.6165 16.5705C45.6469 19.2293 50.7055 21.8427 55.7919 24.4104C58.589 25.4795 61.3859 25.4795 64.183 24.4104C68.1563 22.8312 72.1435 21.2871 76.1448 19.7778C86.1049 15.1344 96.0431 10.4423 105.96 5.70168C109.361 4.12623 112.932 3.47292 116.672 3.74172C124.589 4.67737 132.504 5.62766 140.417 6.59257C173.626 7.74654 206.833 8.93438 240.039 10.1561C242.23 10.4687 244.194 11.3002 245.931 12.6506C263.436 25.7856 280.991 38.8521 298.598 51.8498C299.169 52.361 299.677 52.9251 300.116 53.5425C304.065 63.2286 307.873 72.9691 311.542 82.7637C312.97 94.1671 314.398 105.571 315.827 116.974C315.895 117.829 316.073 118.661 316.362 119.468C322.952 130.545 329.677 141.533 336.537 152.431C337.044 153.415 337.103 154.425 336.715 155.46C333.134 160.697 329.415 165.835 325.557 170.873C323.457 171.98 321.315 172.989 319.13 173.902C316.689 174.021 314.25 174.021 311.81 173.902C313.456 173.511 314.795 172.65 315.827 171.318C317.3 168.913 318.728 166.477 320.112 164.013C320.595 162.215 320.417 160.493 319.576 158.846C316.6 155.401 313.625 151.956 310.649 148.511C300.378 138.321 290.054 128.194 279.674 118.132C277.012 116.731 274.721 117.177 272.8 119.468C261.097 136.325 249.284 153.103 237.361 169.804C236.568 170.404 235.676 170.76 234.683 170.873C227.958 171.883 221.234 172.892 214.509 173.902C208.497 174.021 202.488 174.021 196.477 173.902C195.748 172.975 195.807 172.084 196.655 171.229C202.07 168.913 207.487 166.597 212.902 164.28C214.696 163.201 215.976 161.687 216.74 159.737C218.081 153.281 219.331 146.807 220.49 140.315C220.609 133.545 220.609 126.774 220.49 120.003C219.97 117.051 218.333 115.002 215.58 113.856C199.564 109.726 183.554 105.569 167.554 101.383C166.968 101.105 166.462 100.719 166.037 100.225C164.549 97.8496 163.061 95.4737 161.573 93.0981C159.247 90.7989 156.866 90.7395 154.432 92.9199C154.253 93.2169 154.075 93.5138 153.896 93.8108C152.459 100.09 151.091 106.386 149.79 112.698C149.519 113.799 148.954 114.72 148.094 115.459C139.534 121.567 131.024 127.744 122.564 133.99C116.127 136.646 109.58 139.022 102.925 141.117C100.593 141.61 98.7774 142.827 97.4796 144.77C94.6231 150.353 91.7665 155.936 88.91 161.518C87.3692 162.979 85.8815 162.92 84.4466 161.34C84.1342 160.851 83.9557 160.316 83.911 159.737C83.7919 154.57 83.7919 149.402 83.911 144.235C83.9512 143.065 84.1892 141.937 84.6252 140.85C85.9831 138.604 87.4114 136.407 88.91 134.257C94.7421 127.486 100.574 120.716 106.406 113.945C107.085 112.887 107.621 111.758 108.013 110.56C108.958 106.508 109.493 102.41 109.62 98.2652C109.477 97.6607 109.299 97.0668 109.084 96.4835C105.069 88.9428 100.962 81.4593 96.7655 74.033C95.4 72.7136 93.7636 72.0009 91.8558 71.8949C79.6696 74.4163 67.4698 76.8812 55.2563 79.2893C51.5171 80.0004 47.7679 80.6536 44.0087 81.2492C32.7337 82.0175 21.4563 82.7598 10.1765 83.4765C9.80268 83.47 9.44561 83.4107 9.10527 83.2983C7.27594 80.7755 5.4906 78.2216 3.74925 75.6366C3.65363 75.2683 3.74289 74.9415 4.01705 74.6566C9.87734 70.4554 15.769 66.2979 21.6919 62.1842C23.9722 60.2279 24.835 57.7632 24.2807 54.7898C24.0343 53.882 23.7367 52.9911 23.388 52.1171C23.2382 51.1512 23.2977 50.201 23.5665 49.2662C28.4612 41.2185 33.4007 33.2005 38.3848 25.2122C38.5039 24.9152 38.5039 24.6183 38.3848 24.3213C37.229 21.1873 36.1282 18.0394 35.082 14.8779Z" fill="#E3CFB6"/>
<path fill-rule="evenodd" clip-rule="evenodd" d="M150.951 120.894C152.734 120.76 154.132 121.413 155.146 122.854C156.561 126.555 157.87 130.297 159.074 134.079C159.436 135.696 159.377 137.3 158.895 138.89C157.371 143.967 155.764 149.016 154.075 154.035C148.778 160.925 143.482 167.814 138.185 174.704C136.998 176.202 135.48 177.182 133.633 177.644C127.254 177.818 120.886 177.759 114.53 177.465C112.86 176.176 112.533 174.602 113.548 172.744C113.973 172.25 114.479 171.864 115.065 171.586C117.684 170.16 120.302 168.735 122.921 167.309C123.935 166.773 124.53 165.941 124.706 164.815C124.173 162.183 123.696 159.539 123.278 156.886C123.359 156.231 123.448 155.578 123.546 154.926C125.011 150.065 126.617 145.254 128.366 140.493C129.207 139.119 130.248 137.901 131.49 136.841C137.441 131.733 143.393 126.625 149.344 121.518C149.892 121.287 150.428 121.079 150.951 120.894ZM151.486 124.636C151.899 124.94 152.167 125.356 152.29 125.883C153.52 129.258 154.621 132.674 155.592 136.128C154.171 141.57 152.535 146.945 150.683 152.253C145.286 159.372 139.781 166.41 134.168 173.367C133.773 173.595 133.356 173.773 132.919 173.902C128.217 174.021 123.516 174.021 118.814 173.902C121.076 172.655 123.337 171.407 125.599 170.16C127.344 168.816 128.296 167.035 128.455 164.815C128.027 162.164 127.551 159.521 127.027 156.886C128.384 151.943 129.961 147.073 131.758 142.275C132.249 141.429 132.874 140.686 133.633 140.048C139.618 134.935 145.569 129.797 151.486 124.636Z" fill="#E3CFB6"/>
</g>
<defs>
<clipPath id="clip0_357_257">
<rect width="341" height="178" fill="white"/>
</clipPath>
</defs>
</svg>
